<svg width="90" height="90" viewBox="0 0 90 90" fill="none" xmlns="http://www.w3.org/2000/svg">
<path d="M18 12C14.685 12 12 14.685 12 18V72C12 75.315 14.685 78 18 78H72C75.315 78 78 75.315 78 72V18C78 14.685 75.315 12 72 12H18ZM36.9258 24H45C52.14 24 57.9768 29.8704 57.9258 37.0254C57.9108 38.7714 59.4083 40.1543 61.1543 40.1543H62.7715C64.5565 40.1543 66 41.6037 66 43.3887V53.0742C66 60.1842 60.1842 66 53.0742 66H36.9199C29.8129 66 24 60.1842 24 53.0742V45V36.9258C24 29.8158 29.8158 24 36.9258 24ZM36.9258 33.6914C35.1498 33.6914 33.6914 35.1498 33.6914 36.9258C33.6914 38.7018 35.1498 40.1543 36.9258 40.1543H45C46.776 40.1543 48.2285 38.7018 48.2285 36.9258C48.2285 35.1498 46.776 33.6914 45 33.6914H36.9258ZM36.9199 49.8457C35.1439 49.8457 33.6914 51.2982 33.6914 53.0742C33.6914 54.8502 35.1439 56.3086 36.9199 56.3086H53.0742C54.8502 56.3086 56.3086 54.8502 56.3086 53.0742C56.3086 51.2982 54.8532 49.8457 53.0742 49.8457H36.9199Z" fill="#01342F"/>
</svg>
