<svg width="25" height="25" viewBox="0 0 25 25" fill="none" xmlns="http://www.w3.org/2000/svg">
<g clip-path="url(#clip0_3_38)">
<path d="M17.0217 23.5141V19.2284H20.4503C20.9049 19.2284 21.341 19.0477 21.6624 18.7263C21.9839 18.4047 22.1645 17.9688 22.1645 17.5141V10.6569C22.1642 8.98126 21.7173 7.33595 20.8699 5.89036C20.0225 4.44478 18.8051 3.25115 17.3431 2.43236C15.8811 1.61357 14.2273 1.1992 12.552 1.2319C10.8766 1.26461 9.24026 1.7432 7.81131 2.61843C6.38239 3.49364 5.21252 4.73387 4.42213 6.21142C3.63176 7.68898 3.24944 9.35048 3.31452 11.0249C3.37961 12.6993 3.88975 14.3261 4.79242 15.7378C5.69509 17.1496 6.9577 18.2952 8.45026 19.057V23.5141" stroke="white" stroke-width="1.71429" stroke-linecap="round" stroke-linejoin="round"/>
<path d="M10.1646 6.04818C7.79973 7.41354 6.81583 10.2522 7.70291 12.7354C7.90773 13.3087 8.52658 13.597 9.1151 13.4411C12.0929 12.6523 15.1247 10.5184 16.9666 8.85469C17.4546 8.4139 17.5557 7.67727 17.121 7.18386C15.4048 5.23595 12.4994 4.70021 10.1646 6.04818Z" stroke="white" stroke-width="1.71429" stroke-linecap="round" stroke-linejoin="round"/>
</g>
<defs>
<clipPath id="clip0_3_38">
<rect width="24" height="24" fill="white" transform="translate(0.735977 0.371288)"/>
</clipPath>
</defs>
</svg>
