<svg width="25" height="25" viewBox="0 0 25 25" fill="none" xmlns="http://www.w3.org/2000/svg">
<g clip-path="url(#clip0_3_42)">
<path d="M22.0312 23.3835H6.03668C5.36689 23.3835 4.72453 23.1175 4.25091 22.6438C3.7773 22.1703 3.51123 21.528 3.51123 20.858C3.51123 20.1883 3.7773 19.5459 4.25091 19.0723C4.72453 18.5988 5.36689 18.3327 6.03668 18.3327H20.3476C20.7941 18.3327 21.2224 18.1553 21.5381 17.8395C21.8539 17.5237 22.0312 17.0956 22.0312 16.649V3.17992C22.0312 2.7334 21.8539 2.30516 21.5381 1.98941C21.2224 1.67367 20.7941 1.49629 20.3476 1.49629H6.03668C5.3784 1.49606 4.74603 1.75286 4.27431 2.212C3.80259 2.67116 3.52878 3.29634 3.51123 3.9544V20.7908" stroke="white" stroke-width="1.71429" stroke-linecap="round" stroke-linejoin="round"/>
<path d="M20.3477 18.3327V23.3837" stroke="white" stroke-width="1.71429" stroke-linecap="round" stroke-linejoin="round"/>
<path d="M13.6338 14.4901C14.2045 14.7315 14.8373 14.785 15.4404 14.6428C16.0436 14.5006 16.5858 14.1701 16.9886 13.6991L17.4114 13.2764C17.5953 13.1288 17.715 12.9158 17.7455 12.682C17.776 12.4481 17.7149 12.2116 17.575 12.0217L16.2113 10.6579C16.0214 10.5181 15.7849 10.457 15.551 10.4875C15.3172 10.518 15.1042 10.6377 14.9566 10.8216C14.809 11.0055 14.596 11.1252 14.3622 11.1557C14.1284 11.1862 13.8918 11.1252 13.702 10.9853L11.5199 8.80324C11.3801 8.6134 11.319 8.37683 11.3495 8.143C11.38 7.90917 11.4997 7.69619 11.6836 7.54859C11.8675 7.40099 11.9872 7.18799 12.0177 6.95416C12.0482 6.72033 11.9872 6.48376 11.8472 6.29392L10.4835 4.93017C10.2937 4.79027 10.0571 4.72919 9.82326 4.75969C9.58941 4.79018 9.37643 4.90991 9.22883 5.09382L8.80607 5.51658C8.33687 5.92064 8.00764 6.46285 7.86556 7.0655C7.72347 7.66816 7.7758 8.30034 8.01508 8.87144C9.39795 11.1775 11.3277 13.1072 13.6338 14.4901Z" stroke="white" stroke-width="1.71429" stroke-linecap="round" stroke-linejoin="round"/>
</g>
<defs>
<clipPath id="clip0_3_42">
<rect width="24" height="24" fill="white" transform="translate(0.735977 0.371288)"/>
</clipPath>
</defs>
</svg>
