<svg width="25" height="25" viewBox="0 0 25 25" fill="none" xmlns="http://www.w3.org/2000/svg">
<g clip-path="url(#clip0_3_31)">
<path d="M7.42375 23.3551V19.1312C5.18837 18.3555 3.68723 15.7523 3.68723 12.6955C3.68723 10.8727 4.09711 8.96783 6.12107 8.96783H11.2508C12.3028 8.96783 13.1552 9.82065 13.1552 10.8727C13.1552 11.7118 12.6062 12.452 11.8032 12.6956L8.87047 13.585C10.3709 13.585 12.2114 15.0081 12.1718 16.8513" stroke="#FDFDFD" stroke-width="1.71429" stroke-linecap="round" stroke-linejoin="round"/>
<path d="M17.561 23.3557V19.1311C17.561 19.1311 18.5675 18.6279 19.619 17.6215C21.6443 15.6833 21.9083 12.6181 21.3604 9.86891C21.1776 8.9522 20.9164 8.02335 20.5427 7.24182" stroke="#FDFDFD" stroke-width="1.71429" stroke-linecap="round" stroke-linejoin="round"/>
<path d="M5.31006 8.84334V5.61099C5.31006 4.21131 6.44473 3.07664 7.84441 3.07664C9.24409 3.07664 10.3788 4.21131 10.3788 5.61099V8.84334" stroke="#FDFDFD" stroke-width="1.71429" stroke-linecap="round" stroke-linejoin="round"/>
<path d="M10.3788 8.17741V3.92339C10.3788 2.52284 11.5142 1.38747 12.9148 1.38747C14.3153 1.38747 15.4507 2.52284 15.4507 3.92339V8.17741C15.4507 9.51155 14.4204 10.6051 13.1121 10.7058" stroke="#FDFDFD" stroke-width="1.71429" stroke-linecap="round" stroke-linejoin="round"/>
<path d="M15.4508 5.61193C15.4508 4.21173 16.5858 3.07664 17.986 3.07664C19.3862 3.07664 20.5212 4.21173 20.5212 5.61193V7.78785C20.5212 9.18805 19.3862 10.3231 17.986 10.3231C16.5858 10.3231 15.4508 9.18805 15.4508 7.78785V5.61193Z" stroke="#FDFDFD" stroke-width="1.71429" stroke-linecap="round" stroke-linejoin="round"/>
</g>
<defs>
<clipPath id="clip0_3_31">
<rect width="24" height="24" fill="white" transform="translate(0.735977 0.371288)"/>
</clipPath>
</defs>
</svg>
