<svg width="24" height="24" viewBox="0 0 24 24" fill="none" xmlns="http://www.w3.org/2000/svg">
<path d="M13.4075 2.08C17.025 3.6855 19.767 5.795 21.1845 7.0135C21.901 7.6295 22.3005 8.516 22.3495 9.4595C22.418 10.755 22.5 12.7825 22.5 15C22.5 16.706 22.4515 18.353 22.398 19.6465C22.3707 20.3667 22.071 21.0498 21.5593 21.5575C21.0477 22.0652 20.3624 22.3597 19.642 22.3815C17.912 22.4415 15.3445 22.5 12 22.5C8.6555 22.5 6.0885 22.441 4.358 22.382C3.63756 22.3602 2.95226 22.0657 2.44065 21.558C1.92905 21.0503 1.6293 20.3672 1.602 19.647C1.53663 18.0988 1.50262 16.5495 1.5 15C1.5 12.7825 1.5825 10.755 1.65 9.4595C1.7 8.516 2.099 7.6295 2.8155 7.0135C4.233 5.7945 6.9755 3.6855 10.5925 2.08C11.0357 1.88336 11.5152 1.78177 12 1.78177C12.4848 1.78177 12.9643 1.88336 13.4075 2.08Z" stroke="white" stroke-width="1.5" stroke-linecap="round" stroke-linejoin="round"/>
<path d="M8 19H16" stroke="white" stroke-width="1.5" stroke-linecap="round" stroke-linejoin="round"/>
</svg>
